<svg id="Ebene_1" data-name="Ebene 1" xmlns="http://www.w3.org/2000/svg" viewBox="0 0 1189.923 784.484"><defs><style>.cls-1{fill:#66CC8A;}</style></defs><title>logo wechselgott aktuell</title><path class="cls-1" d="M903.866,478.568v.794c0,17.5-19.194,28.4-34.1,19.222-35.928-22.131-79.278-38.449-130.788-38.449-51.295,0-94.468,16.181-130.293,38.141-14.9,9.136-34.056-1.763-34.056-19.245V478.01a22.529,22.529,0,0,1,6.819-16.15c42.454-41.263,95.5-67.449,157.53-67.449,62.343,0,115.578,26.457,158.109,68.051A22.539,22.539,0,0,1,903.866,478.568Z" transform="translate(-145.219 -368.835)"/><path class="cls-1" d="M1257.93,458.508a54.664,54.664,0,0,1,53.347-42.744h1.394a22.47,22.47,0,0,0,22.47-22.47V391.3a22.47,22.47,0,0,0-22.47-22.469H1150.846a22.47,22.47,0,0,0-22.47,22.469v1.99a22.47,22.47,0,0,0,22.47,22.47h0a33.014,33.014,0,0,1,32.216,40.215l-133.106,595.91q-1.171-1.339-2.344-2.734a757.537,757.537,0,0,0-67.39-68.692,824.337,824.337,0,0,0-98.082-75.538q-19.335-12.694-37.443-24.441-21.9-14.231-41.721-27.288c31.621-25.929,57.9-53.086,77.825-84.949a157.725,157.725,0,0,0,19.847-48.231,176.549,176.549,0,0,0-3.962-93.022,135.565,135.565,0,0,0-19.1-38.281,153.591,153.591,0,0,0-61.047-49.886c-22.638-10.268-48.381-15.476-76.5-15.476-28.106,0-53.849,5.208-76.486,15.476a153.647,153.647,0,0,0-61.066,49.886A135.533,135.533,0,0,0,583.4,626.994a173.086,173.086,0,0,0-8.147,44.623,174.981,174.981,0,0,0,4.166,48.4,157.749,157.749,0,0,0,19.847,48.231c19.94,31.863,46.223,59.02,77.844,84.949q-19.811,13.114-41.721,27.288-18.108,11.773-37.444,24.441a824.407,824.407,0,0,0-98.081,75.538,752.538,752.538,0,0,0-67.39,68.692q-1.2,1.4-2.344,2.734L297,455.979a33.014,33.014,0,0,1,32.216-40.215h.279a22.47,22.47,0,0,0,22.47-22.47V391.3a22.47,22.47,0,0,0-22.47-22.469H167.688A22.469,22.469,0,0,0,145.219,391.3v1.99a22.47,22.47,0,0,0,22.469,22.47h1.1a54.664,54.664,0,0,1,53.347,42.744l148.847,663.409a40.2,40.2,0,0,0,39.228,31.4h18.086a33.081,33.081,0,0,0,27.136-14.1,532.613,532.613,0,0,1,32.842-42.06c28.924-33.63,78.439-83.591,150.107-130.725q19.084-12.557,37.127-24.237c22.767-14.806,44.326-28.831,64.526-42.6,20.219,13.765,41.777,27.79,64.526,42.6q18,11.689,37.127,24.237c70.738,46.52,119.825,95.774,148.545,128.921a539.966,539.966,0,0,1,34.335,43.754,33.207,33.207,0,0,0,27.213,14.206h18.131a40.2,40.2,0,0,0,39.229-31.4Zm-517.9,350.679c-33.816-25.725-60.154-50.891-78.346-79.983-9.356-14.936-13.951-34.039-12.927-53.774,1.041-20.07,7.477-35.509,13.15-43.247,17.317-23.7,42.875-35.211,78.123-35.211s60.805,11.514,78.141,35.211c5.674,7.738,12.091,23.177,13.133,43.247,1.023,19.735-3.553,38.838-12.909,53.774C800.2,758.3,773.847,783.462,740.031,809.187Z" transform="translate(-145.219 -368.835)"/><style id="stylish-1" class="stylish" type="text/css"> @media(min-width: 1312px) {
     .pagehead.repohead &gt; div {
         width: 1280px;
         margin: 0 auto;
     }
     .pagehead.repohead &gt; nav &gt; ul {
         width: 1216px;
         margin: 0 auto;
     }
     .notifications-v2.notification-shelf &gt; div {
         width: 1280px;
         margin: 0 auto;
         padding-left: 32px;
     }
     header.Header {
         width: 1248px;
         margin: 0 auto;
     }
     div.Header {
         width: 1012px;
         margin: 0 auto;
     }
     header.Header:before, div.Header:before {
         content:"";
         background: #24292e;
         border-bottom: 1px solid #343434 !important;
         left: 0;
         right: 0;
         position: absolute;
         top: 0;
         bottom: 0;
         z-index: -1;
     }
 }</style></svg>